<?xml version="1.0" encoding="utf-8"?>
<!-- Generator: Adobe Illustrator 23.0.3, SVG Export Plug-In . SVG Version: 6.00 Build 0)  -->
<svg version="1.1" id="Layer_1" xmlns="http://www.w3.org/2000/svg" xmlns:xlink="http://www.w3.org/1999/xlink" x="0px" y="0px"
	 viewBox="0 0 480 151" style="enable-background:new 0 0 480 151;" xml:space="preserve">
<style type="text/css">
	.st0{fill:#00205C;}
	.st1{fill:#FFFFFF;}
</style>
<rect class="st0" width="480" height="151"/>
<g>
	<g>
		<path class="st1" d="M82.3,45.7h12.6v67.4c0,10.5-7.6,17.5-18.3,17.5h-4.9v-11.8h3.6c4.3,0,7-2,7-6.7V45.7 M82.3,20.4h12.6V33
			H82.3V20.4z"/>
		<path class="st1" d="M115.6,71.3c0.2-9.5,5.8-14.6,13.2-14.6c7.4,0,12.8,5.1,13.2,14.6H115.6 M154.6,81.7V71.3
			c0-16.2-12-26.4-25.8-26.4c-12.1,0-25.8,7.9-25.8,32.2c0,25.7,14.9,31.8,27.8,31.8c8.4,0,16.4-3,22.6-10.1l-9.1-7.8
			c-3.7,3.8-8.9,6-13.7,6c-8.6,0-14.9-5.2-14.9-15.4H154.6z"/>
		<path class="st1" d="M164.6,26.7h12.6v19h9.1v9.6h-9.1v36.4c0,3.5,1.4,4.7,4.4,4.7h4.7v11.8h-6.5c-8.8,0-15.2-5.6-15.2-15.4V55.3
			h-6.3v-9.6h6.3V26.7z"/>
		<path class="st1" d="M228.1,69.2c9.9,0,14.3,6.3,14.3,13.2c0,6.9-4.4,13.2-14.3,13.2h-20.5V69.2H228.1 M194.3,108.2h37
			c13.2,0,24.4-9.7,24.4-24.9c0-8.9-4.7-18-14.3-20.2v-0.2c10.2-4.6,13-11.6,13-18.9c0-13.8-8.9-23.6-26-23.6h-34V108.2 M226.9,32.2
			c9.6,0,14.2,5.8,14.2,12.6c0,6.9-4.6,12.6-14.2,12.6h-19.2V32.2H226.9z"/>
		<path class="st1" d="M262.9,20.4h12.6v71.7c0,2.8,1.6,4.3,4.7,4.3h4.3v11.8H279c-9.1,0-16-3.9-16-15.2V20.4z"/>
		<path class="st1" d="M289.8,45.7h12.6v37.3c0,8.5,5.3,13.4,12.5,13.4c7,0,12.3-4.9,12.3-13.4V45.7h12.6v62.5h-12.6v-6.7H327
			c-3.9,4.9-9.6,7.4-16.2,7.4c-9.9,0-21-7.5-21-21.7V45.7z"/>
		<path class="st1" d="M359.1,71.3c0.3-9.5,5.8-14.6,13.2-14.6c7.4,0,12.8,5.1,13.2,14.6H359.1 M398.1,81.7V71.3
			c0-16.2-12-26.4-25.8-26.4c-12.1,0-25.8,7.9-25.8,32.2c0,25.7,14.9,31.8,27.8,31.8c8.4,0,16.4-3,22.6-10.1l-9.1-7.8
			c-3.7,3.8-8.9,6-13.7,6c-8.6,0-14.9-5.2-14.9-15.4H398.1z"/>
	</g>
	<path class="st1" d="M402.7,44.6c3.1,0,5.6,2.5,5.6,5.6c0,3.1-2.5,5.6-5.6,5.6c-3.1,0-5.6-2.5-5.6-5.6
		C397.1,47.1,399.6,44.6,402.7,44.6z M402.7,54.6c2.5,0,4.4-1.9,4.4-4.5c0-2.6-1.9-4.5-4.4-4.5c-2.5,0-4.4,1.9-4.4,4.5
		C398.3,52.8,400.2,54.6,402.7,54.6z M400.6,46.8h2.5c1.5,0,2.2,0.6,2.2,1.9c0,1.3-0.8,1.8-1.7,1.9l1.9,2.7h-1.3l-1.9-2.6h-0.6v2.6
		h-1.1V46.8z M401.7,49.6h0.8c0.9,0,1.7-0.1,1.7-0.9c0-0.8-0.7-0.9-1.5-0.9h-1V49.6z"/>
</g>
</svg>
