<?xml version="1.0" encoding="utf-8"?>
<!-- Generator: Adobe Illustrator 23.0.2, SVG Export Plug-In . SVG Version: 6.00 Build 0)  -->
<svg version="1.1" id="Layer_1" xmlns="http://www.w3.org/2000/svg" xmlns:xlink="http://www.w3.org/1999/xlink" x="0px" y="0px"
	 viewBox="0 0 300 94" style="enable-background:new 0 0 300 94;" xml:space="preserve">
<style type="text/css">
	.st0{fill:#FFFFFF;}
	.st1{fill:#00AF41;}
	.st2{fill:#FFDB00;}
	.st3{fill:#636569;}
</style>
<rect class="st0" width="300" height="94"/>
<g>
	<g>
		<path class="st1" d="M122.1,61.5c0,0-22.8,0.1-29.1,0.1c-0.4,0-5.1,0-8.2-1.4c-0.9-0.4-1.7-0.8-2.5-1.2c0,0,0,0,0,0
			c-1.4-0.8-2.6-1.7-3.5-2.5c-1.6-1.4-2.3-2.5-2.3-2.5c-0.6-0.7-1.2-1.4-1.8-2.1c-1.5-1.7-3.1-3.3-4.7-4.6
			c-11.4-9.7-25.1-9.9-26.1-9.9h32.1c0,0,0.8,0,1,0c2.7,0.1,5.2,1.4,6.5,2.1c0.9,0.5,3.2,2.4,3.2,2.4c0.7,0.6,1.5,1.3,2.2,2
			c0,0,6,7.4,11.4,10.9C112,62.1,122.1,61.5,122.1,61.5z"/>
		<path class="st2" d="M98.8,56.5c0,0-22.8,0.1-29.1,0.1c-0.4,0-5.1,0-8.2-1.4c-0.9-0.4-1.7-0.8-2.5-1.2c0,0,0,0,0,0
			c-1.4-0.8-2.6-1.7-3.5-2.5c-1.6-1.4-2.3-2.5-2.3-2.5c-0.6-0.7-1.2-1.4-1.8-2.1c-1.5-1.7-3.1-3.3-4.7-4.6
			c-11.4-9.7-25.1-9.9-26.1-9.9h32.1c0,0,0.8,0,1,0c2.7,0.1,5.2,1.4,6.5,2.1c0.9,0.5,3.2,2.4,3.2,2.4c0.7,0.6,1.5,1.3,2.2,2
			c0,0,6,7.4,11.4,10.9C88.7,57.2,98.8,56.5,98.8,56.5z"/>
		<path class="st1" d="M83.1,61.5c0,0-22.8,0.1-29.1,0.1c-0.4,0-5.1,0-8.2-1.4c-0.9-0.4-1.7-0.8-2.5-1.2c0,0,0,0,0,0
			c-1.4-0.8-2.6-1.7-3.5-2.5c-1.6-1.4-2.3-2.5-2.3-2.5c-0.6-0.7-1.2-1.4-1.8-2.1c-1.5-1.7-3.1-3.3-4.7-4.6
			C19.8,37.6,6,37.4,5.1,37.4h32.1c0,0,0.8,0,1,0c2.7,0.1,5.2,1.4,6.5,2.1c0.9,0.5,3.2,2.4,3.2,2.4c0.7,0.6,1.5,1.3,2.2,2
			c0,0,6,7.4,11.4,10.9C73,62.1,83.1,61.5,83.1,61.5z"/>
	</g>
	<g>
		<path class="st3" d="M120.6,37.3h4.4v15.7h7.7v3.7h-12.1V37.3z"/>
		<path class="st3" d="M140.1,51.8l-1.4,5h-4.6l5.9-19.4h5.8l6,19.4h-4.7l-1.5-5H140.1z M145,48.5l-1.2-4.1c-0.3-1.2-0.7-2.6-1-3.7
			h-0.1c-0.3,1.2-0.6,2.6-0.9,3.7l-1.2,4.1H145z"/>
		<path class="st3" d="M154.6,52.3c1.2,0.6,3,1.2,4.9,1.2c2,0,3.1-0.8,3.1-2.1c0-1.2-0.9-1.9-3.3-2.7c-3.2-1.1-5.3-2.9-5.3-5.7
			c0-3.3,2.8-5.9,7.4-5.9c2.2,0,3.8,0.5,5,1l-1,3.5c-0.8-0.4-2.2-0.9-4.1-0.9c-1.9,0-2.8,0.9-2.8,1.9c0,1.2,1.1,1.8,3.6,2.7
			c3.4,1.3,5,3.1,5,5.8c0,3.3-2.5,6-7.8,6c-2.2,0-4.4-0.6-5.5-1.2L154.6,52.3z"/>
		<path class="st3" d="M181.6,48.6h-7.2v4.6h8v3.6h-12.4V37.3h12v3.6h-7.6v4h7.2V48.6z"/>
		<path class="st3" d="M185.5,37.6c1.4-0.2,3.5-0.4,5.9-0.4c2.9,0,4.9,0.4,6.3,1.5c1.2,0.9,1.8,2.3,1.8,4.1c0,2.5-1.8,4.2-3.4,4.8
			v0.1c1.4,0.5,2.1,1.8,2.6,3.6c0.6,2.2,1.2,4.7,1.6,5.5h-4.5c-0.3-0.5-0.8-2.1-1.4-4.5c-0.5-2.4-1.4-3.1-3.1-3.1h-1.3v7.6h-4.4
			V37.6z M189.8,46h1.7c2.2,0,3.5-1.1,3.5-2.8c0-1.8-1.2-2.7-3.2-2.7c-1.1,0-1.7,0.1-2,0.1V46z"/>
	</g>
	<g>
		<path class="st3" d="M212.2,50.3l-2.1,6.5h-2.6l6.6-19.4h3l6.6,19.4h-2.7l-2.1-6.5H212.2z M218.3,48.3l-1.7-5.2
			c-0.4-1.3-0.7-2.4-1-3.5h-0.1c-0.3,1.2-0.6,2.3-1,3.5l-1.8,5.2H218.3z"/>
		<path class="st3" d="M229.3,38.9c0,0.9-0.6,1.6-1.6,1.6c-0.9,0-1.5-0.7-1.5-1.6c0-0.9,0.7-1.6,1.6-1.6
			C228.7,37.3,229.3,38,229.3,38.9z M226.5,56.8v-14h2.5v14H226.5z"/>
		<path class="st3" d="M233.2,47.2c0-1.6,0-3.1-0.1-4.4h2.2l0.1,2.7h0.1c0.6-1.9,2.2-3.1,3.9-3.1c0.3,0,0.5,0,0.7,0.1V45
			c-0.3-0.1-0.5-0.1-0.9-0.1c-1.8,0-3.1,1.4-3.4,3.3c-0.1,0.3-0.1,0.8-0.1,1.2v7.4h-2.5V47.2z"/>
		<path class="st3" d="M242.8,36.3h2.5v20.5h-2.5V36.3z"/>
		<path class="st3" d="M252.4,38.9c0,0.9-0.6,1.6-1.6,1.6c-0.9,0-1.5-0.7-1.5-1.6c0-0.9,0.7-1.6,1.6-1.6
			C251.8,37.3,252.4,38,252.4,38.9z M249.6,56.8v-14h2.5v14H249.6z"/>
		<path class="st3" d="M256.3,46.6c0-1.4,0-2.6-0.1-3.8h2.2l0.1,2.3h0.1c0.7-1.3,2.3-2.6,4.6-2.6c1.9,0,4.9,1.2,4.9,5.9v8.3h-2.5v-8
			c0-2.3-0.8-4.1-3.2-4.1c-1.7,0-3,1.2-3.4,2.6c-0.1,0.3-0.2,0.8-0.2,1.2v8.4h-2.5V46.6z"/>
		<path class="st3" d="M273.7,50.3c0.1,3.4,2.2,4.8,4.8,4.8c1.8,0,2.9-0.3,3.9-0.7l0.4,1.8c-0.9,0.4-2.4,0.9-4.6,0.9
			c-4.3,0-6.9-2.8-6.9-7c0-4.2,2.5-7.5,6.5-7.5c4.6,0,5.8,4,5.8,6.6c0,0.5-0.1,0.9-0.1,1.2H273.7z M281.2,48.4
			c0-1.6-0.7-4.1-3.5-4.1c-2.6,0-3.7,2.4-3.9,4.1H281.2z"/>
		<path class="st3" d="M286.4,54.2c0.8,0.5,2.1,1,3.3,1c1.8,0,2.7-0.9,2.7-2.1c0-1.2-0.7-1.9-2.6-2.6c-2.5-0.9-3.7-2.3-3.7-4
			c0-2.2,1.8-4.1,4.8-4.1c1.4,0,2.7,0.4,3.4,0.9l-0.6,1.8c-0.5-0.3-1.6-0.8-2.9-0.8c-1.5,0-2.3,0.9-2.3,1.9c0,1.2,0.8,1.7,2.7,2.4
			c2.4,0.9,3.7,2.1,3.7,4.2c0,2.5-1.9,4.2-5.2,4.2c-1.5,0-2.9-0.4-3.9-1L286.4,54.2z"/>
	</g>
</g>
</svg>
