<?xml version="1.0" encoding="utf-8"?>
<!-- Generator: Adobe Illustrator 23.0.3, SVG Export Plug-In . SVG Version: 6.00 Build 0)  -->
<svg version="1.1" id="Layer_1" xmlns="http://www.w3.org/2000/svg" xmlns:xlink="http://www.w3.org/1999/xlink" x="0px" y="0px"
	 viewBox="0 0 480 151" style="enable-background:new 0 0 480 151;" xml:space="preserve">
<style type="text/css">
	.st0{fill:#002B5C;}
	.st1{fill:#FFFFFF;}
	.st2{fill:#ED3024;}
</style>
<rect x="0.6" class="st0" width="479.4" height="151"/>
<g>
	<g>
		<g>
			<polygon class="st1" points="438.5,50.7 438.2,50.6 438.3,50.4 439.1,50.8 439,51 438.7,50.8 438.3,51.7 438.1,51.6 			"/>
			<polygon class="st1" points="439.3,50.9 439.6,51 439.4,51.9 439.4,51.9 440.1,51.3 440.4,51.4 439.9,52.4 439.7,52.3 
				440.1,51.5 440.1,51.5 439.4,52.2 439.2,52.1 439.4,51.1 439.4,51.1 439,52 438.8,51.9 			"/>
			<path class="st1" d="M441.7,59.7L441.7,59.7c3.9,3.9,6.4,9.2,6.8,15.2c0.9,13.1-9,24.5-22.1,25.4c-6.2,0.4-12-1.5-16.4-5.1l0,0
				c4.7,4.3,11,6.8,17.9,6.3c13.1-0.9,23-12.3,22.1-25.4C449.5,69.5,446.4,63.7,441.7,59.7"/>
			<path class="st1" d="M399.5,86.8c-0.7,0.4-0.9,1.1-0.5,2c0.4,0.9,0.9,1.3,1.5,1c0.5-0.2,0.6-0.6,0.4-1.7l-0.1-0.4
				c-0.2-1.1-0.2-1.5-0.1-2c0.1-0.5,0.4-0.8,0.9-1c1.1-0.4,2.1,0.2,2.7,1.8c0.7,1.6,0.3,2.9-1,3.4l-0.3-0.8c0.9-0.4,1.1-1.2,0.6-2.4
				c-0.4-1-1-1.4-1.7-1.1c-0.5,0.2-0.7,0.7-0.5,1.8l0.1,0.5l0.1,0.4c0.1,0.8,0.2,1.1,0.1,1.5c-0.1,0.4-0.4,0.8-0.8,0.9
				c-1,0.4-2-0.2-2.5-1.6c-0.6-1.5-0.3-2.6,0.9-3.1L399.5,86.8z"/>
			<polygon class="st1" points="398.8,78.2 402.4,75.2 402.4,76.3 399.4,78.8 400.4,79.9 402.5,79.9 402.5,80.7 396.4,80.9 
				396.4,80 398.8,79.9 399.1,79.9 399.4,79.9 399.2,79.7 399,79.5 396.3,76.6 396.3,75.4 			"/>
			<path class="st1" d="M401.5,68.7l2.4,0.8l-0.3,0.8l-2.4-0.8l-4.2,1.3l0.4-1L400,69l0.3-0.1c0.1,0,0.2,0,0.4-0.1
				c-0.2-0.2-0.3-0.3-0.5-0.6l-1.6-2.2l0.3-1L401.5,68.7z"/>
			<polygon class="st1" points="405.7,57.4 404.4,59 408.2,62.2 407.3,63.3 403.4,60.1 402.1,61.7 401.3,61 404.8,56.7 			"/>
			<polygon class="st1" points="414,51.6 410.9,53.4 411.5,54.5 414.4,52.9 414.9,53.8 412,55.4 412.8,56.7 416,54.9 416.5,55.9 
				412.1,58.5 409,53.2 413.4,50.6 			"/>
			<path class="st1" d="M425.8,54l-1.6,0.1l-0.8-1.3l-2.5,0.4l-0.4,1.5l-1.5,0.4l1.6-6.7l1.5-0.2L425.8,54z M422.3,50.8
				c-0.3-0.6-0.5-0.8-0.7-1.2c-0.1,0.4-0.1,0.8-0.3,1.4l-0.3,1.2l1.8-0.3L422.3,50.8z"/>
			<path class="st1" d="M435.7,55.9l-1.3-0.5l0.5-1.8c0.1-0.2,0.1-0.5,0.2-0.9c0.1-0.4,0.2-0.7,0.3-0.9c0.1-0.2,0.2-0.5,0.2-0.8
				l0.2-0.4c-0.4,0.6-0.5,0.8-0.8,1.3c-0.1,0.2-0.3,0.4-0.4,0.6l-1.7,2.4l-1.1-0.3l-0.3-2.9c0-0.1,0-0.4-0.1-0.7c0-0.4,0-0.7,0-0.9
				c0-0.2,0-0.4,0-0.7l-0.2,0.7c-0.2,0.8-0.3,1.2-0.5,2.1l-0.5,2l-1.4-0.2l1.5-6l2.1,0.4l0.3,2.8c0.1,0.7,0.1,1.2,0.1,2
				c0.2-0.5,0.3-0.6,0.6-1c0.2-0.3,0.3-0.5,0.5-0.7l1.6-2.3l2,0.7L435.7,55.9z"/>
			<path class="st1" d="M424,67.8c-0.7,0.7-2.2,2.1-3.6,3.4l-1.6,1.6c-1.3-0.2-2.6-0.4-4-0.4c-3,0-5.7,0.8-7,2.1
				c-0.5,0.5-0.7,1-0.7,1.6c0,1.4,1.7,2.2,2.2,2.4c2.7,1,4.9,0.7,7.2-0.9c1.3-0.9,2.9-2.4,4.1-3.5c0.9,0.2,2,0.5,3.2,0.8l1.1,0.3
				c-1.4,1.4-2.8,2.8-4.1,3.9l-0.1,0.1c-1.8,1.6-3.1,2.8-5,3.2c-1.3,0.3-2.3,0-2.6-0.2c0,0-0.1,0.1-0.1,0.1c1.1,0.9,2.1,1.4,3.9,1.3
				c1.7-0.1,3.7-1.2,5.7-3.1l2.7-2.7l1.9-1.9c0,0,3.9,1.1,3.9,1.1c0,0,0.1,0,0.1,0c0,0-2.4,2.3-2.4,2.3l-2.1,2c-2.1,2-3.2,3.1-4.5,4
				c-2,1.4-3.8,2.2-5.3,2.3c-0.8,0.1-1.9,0-2.9-0.6c0,0-0.1,0-0.1,0c1,0.9,2.3,2,4.5,1.9c2.5-0.1,4.7-1.3,8.1-4.4
				c1.6-1.4,3.1-3,4.5-4.4l2.5-2.6c1.7,0.4,3.2,0.5,4.8,0.5c2.4,0,4.5-1.2,4.5-2.5c0-1-0.8-1.5-1.3-1.8c-0.4-0.3-1.5-0.9-3-0.9
				c-1.8,0-3.7,0.8-5.6,2.4l-1.3,1.1c0,0-0.5-0.1-0.5-0.1l-3.5-1c1-1,1.9-1.8,2.7-2.5c1.9-1.7,4.1-2.4,5.3-2.5
				c0.9-0.1,2.5,0,3.1,0.5c0,0,0.1-0.1,0.1-0.1c-1.7-1.5-3.2-1.7-4.5-1.7c-1.2,0-3.2,0.4-5.6,2.3c-1,0.8-2.3,2-3.6,3.4
				c0,0-1.8-0.6-1.8-0.6l-0.4-0.1c0,0-1.9-0.6-1.9-0.6c0,0,1.1-1,1.1-1c1.3-1.2,2.5-2.4,3.4-3.2c3.4-2.9,5.5-3.2,7-3.2
				c1.6,0,2.9,0.3,3.8,1c0,0,0.1-0.1,0.1-0.1c-1.9-1.7-3.3-2.3-5.6-2.3C428.9,64.5,426.4,65.7,424,67.8 M410.7,77.9
				c-1.1-0.1-1.6-0.5-1.6-1.4c0-0.1,0.1-2.8,6.2-3.1c0.7,0,1.5-0.1,2.7,0.1c-0.1,0-0.7,0.6-0.7,0.6l-0.4,0.3
				C415.4,75.8,412.9,78.1,410.7,77.9 M435.6,75.8c1.8-1.2,3.2-1.8,4.2-1.8c0.5,0,1.2,0.2,1.2,0.9c0,0.7-0.7,1.3-1.9,1.7
				c-1.1,0.4-2.9,0.5-4.7,0.3C434.8,76.4,435.2,76,435.6,75.8"/>
			<line class="st1" x1="423.4" y1="77.1" x2="423.4" y2="78.9"/>
			<path class="st1" d="M86,62.9c1.3,0,2.1,0.4,2.8,0.7c1.5,0.7,3.2,1.5,5.3,2.5c0,0,3.5-2.5,3.7-2.6c1.2-0.8,2.3-0.2,2.7,0.5
				c1.3,2.4,3.7,7.5,4.9,12.2c0.2,0.6,0,1.4-0.9,1.7c-0.5,0.1-1.4,0.3-2.3,0.4c-1.3,0.2-1.2,1.2-1.2,1.8c0,0.8,0,5.9,0,7.6
				c0,1.1-0.8,4.6-4.9,4.6c-0.3,0-9.3,0-9.3,0c-3.5,0-6.3-2.9-6.3-6.1c0-2.1,0-16.5,0-18.1C80.6,65,83.4,62.9,86,62.9"/>
			<path class="st1" d="M71.3,92.3H41.2v3.3h35.3c0,0,1.3-3,1.3-6.2c0-0.2,0-22.7,0-22.7c0-1.8,0.7-4.8,4.4-5.6c0.1,0,0.2,0,0.3-0.1
				c10.4-2.5,21.2-0.2,27.2,2.4c1.1,0.5,1.3-0.3,1.3-0.7c0.1-5.1-3.7-10.9-10.9-11.3c-5.8-0.1-9,1.9-10.2,2.5c-0.1,0-0.2,0-0.4-0.1
				c-1.1-1.1-3.3-2.6-5.9-3.4c-0.4-0.1-0.4-0.6,0-0.7c5.5-0.6,10.3,0,12.3,0.4c0.5,0.1,0.8-0.2,0.6-0.6c-0.1-0.3-0.2-0.5-0.5-1
				c-0.5-1-1.8-2.2-3.4-2.6c-4.3-1.2-11.7-2.2-18.2-2.3c-7.4,0-15.1,1.4-17.1,1.9c-0.5,0.1-1.1,0.3-1.2,0.3
				c-0.5,0.1-0.7,0.6-0.4,0.9c0.1,0.2,0.5,0.5,0.7,0.7c0.2,0.3,0.4,0.7-0.1,1.2L42.8,60.8h9.3l0.1,0c0.6,0,1.2,0.5,1.2,1.2
				c0,0.6-0.5,1.2-1.1,1.2l-0.1,0H40.1l-3.7,3.4h15.8l0.1,0c0.6,0,1.1,0.7,1.1,1.2c0,0.5-0.5,1.2-1.1,1.2l-0.1,0H33.7L30,72.4h32
				l0.1,0c0.6,0,1.1,0.6,1.1,1.2c0,0.7-0.5,1.3-1.1,1.3l-0.1,0H30v3.3h32l0.1,0c0.7,0,1.2,0.7,1.2,1.3c0,0.5-0.5,1.1-1.2,1.1l-0.1,0
				H30l0,3.4h41.8l0.1,0c0.7,0,1.1,0.6,1.1,1.3c0,0.6-0.5,1.2-1.1,1.2l-0.1,0H41.2v3.4h30.1H72c0.6,0,1.1,0.7,1.1,1.3
				c0,0.6-0.5,1.2-1.1,1.2H71.3z"/>
			<path class="st1" d="M52.5,103.9l0,3.4c0,0,4.5,0,7.1,0c6.4,0,10.5-3.4,10.5-3.4H52.5z"/>
			<path class="st1" d="M52.5,98.1l0,3.4h20.4c0.9-1,2.2-2.7,2.5-3.4L52.5,98.1z"/>
			<path class="st1" d="M382.1,77.4c0-0.1,0-0.1,0-0.2c-0.1-2.6-1-4.9-2.2-6.7c-2.5-4-7-6.1-12.3-6c-5.3-0.1-9.8,2.1-12.3,6
				c-1.2,1.8-2.1,4.1-2.2,6.7c0,0.1,0,0.1,0,0.2c-0.7,8.7,4.3,14.8,13,15.4c0.5,0,1,0.1,1.5,0.1c0.5,0,1,0,1.5-0.1
				C377.8,92.1,382.9,86.1,382.1,77.4 M368.3,88.7c-0.2,0-0.5,0-0.7,0c-0.2,0-0.4,0-0.7,0c-1.3-0.1-2.3-0.6-3.2-1.3
				c-0.3-0.2-0.5-0.5-0.8-0.7c-1.3-1.5-2-4.1-2.2-6.1c-0.4-4.7,0.6-11.6,6.3-12.1c0.1,0,0.3,0,0.4,0c0,0,0,0,0.1,0c0,0,0,0,0.1,0
				c0.1,0,0.3,0,0.4,0c5.8,0.5,6.7,7.4,6.3,12.1c-0.2,2-0.8,4.5-2.2,6.1c-0.3,0.3-0.5,0.5-0.8,0.7C370.5,88.2,369.4,88.7,368.3,88.7
				"/>
			<path class="st1" d="M324.5,70.9c0-2.2,0.2-6,0.2-6h0h-7.1h0c0,0,0.2,3.8,0.2,6l0,15.5c0,2.2-0.2,5.8-0.2,5.8h0h7.1h0
				c0,0-0.2-3.7-0.2-5.8L324.5,70.9z"/>
			<path class="st1" d="M283,88.1c-1.5,0-3.4,0-4.9,0c-0.1-2.7-0.1-5.4-0.1-7.8l0-0.4l0,0v-0.1h8.2v-3.9H278c0-4.2,0.1-6.9,0.1-6.9
				l10.2,0v-4.1c-7.1,0-17.4,0-17.4,0s0.2,3.8,0.2,5.9v15.5c0,2-0.1,5.3-0.1,5.9h18.1l0-4.3C289,87.9,285.4,88.1,283,88.1"/>
			<path class="st1" d="M164.6,88.1c-1.5,0-3.4,0-4.9,0c-0.1-2.7-0.1-5.4-0.1-7.8l0-0.4h0v-0.1h8.2v-3.9h-8.2c0-4.2,0.1-6.9,0.1-6.9
				l10.2,0v-4.1c-7.1,0-17.4,0-17.4,0s0.2,3.8,0.2,5.9v15.5c0,2-0.1,5.3-0.1,5.9h18.1l0-4.3C170.5,87.9,167,88.1,164.6,88.1"/>
			<path class="st1" d="M306.3,77.6l7.8-12.6h-5.4l0,0.1c-1.6,2.8-3.7,6.3-4.5,7.5l-0.3,0.5l-4.5-8.2h-8.2l7.9,14.1l-8.2,13.2h5.4
				c3.5-6,5.3-8.7,5.3-8.7l4.9,8.7h8.1L306.3,77.6z"/>
			<path class="st1" d="M346.7,88.6c-6.3,0-9.7-4.6-9.6-10.4c0.1-5,2.4-9.2,7.9-9.6c2.1-0.1,3.8,0.2,6.7,1l-0.3-4.3
				c0,0-2.5-0.8-6-0.9c-4.5-0.2-8.6,0.7-11.8,3.7c-2.9,2.7-4.6,6.6-4.6,10.4c0,4.2,1.7,8.1,5,10.8c3.4,2.9,7,3.5,11.4,3.5
				c2.8,0,4.5-0.2,7.3-0.9l-0.4-4.2C351.5,87.9,349.5,88.6,346.7,88.6"/>
			<path class="st1" d="M255.4,60.9l7.9,0l0.2,1.8c1.8,18.3,2.9,29.6,2.9,29.6h-8.2L257.4,81l-0.8-10.1l-7,21.4c-1.8,0-4.4,0-4.4,0
				s-2.2-7.6-2.6-8.7l-4-12.8c0,0-0.6,7.1-0.8,10.2c-0.5,6.1-0.9,11.3-0.9,11.3h-6.2c0,0,2.5-25.6,2.7-27.1c0.2-1.6,0.5-4.3,0.5-4.3
				h8.1l6.7,18.4L255.4,60.9z"/>
			<path class="st1" d="M227.4,77.4c0-0.1,0-0.1,0-0.2c-0.1-2.6-1-4.9-2.2-6.7c-2.5-4-6.9-6.1-12.3-6c-5.3-0.1-9.7,2.1-12.3,6
				c-1.2,1.8-2.1,4.1-2.2,6.7c0,0.1,0,0.1,0,0.2c-0.7,8.7,4.3,14.7,13,15.4c0.5,0,1,0.1,1.5,0.1c0.5,0,1,0,1.5-0.1
				C223,92.1,228.1,86.1,227.4,77.4 M213.6,88.7c-0.2,0-0.4,0-0.7,0c-0.2,0-0.4,0-0.7,0c-1.3-0.1-2.3-0.6-3.2-1.3
				c-0.3-0.2-0.5-0.5-0.8-0.7c-1.3-1.5-2-4-2.2-6.1c-0.4-4.7,0.6-11.6,6.3-12c0.1,0,0.3,0,0.4,0h0.1h0.1c0.1,0,0.3,0,0.4,0
				c5.8,0.5,6.7,7.3,6.3,12c-0.2,2-0.8,4.5-2.2,6.1c-0.3,0.3-0.5,0.5-0.8,0.7C215.8,88.2,214.7,88.6,213.6,88.7"/>
			<path class="st1" d="M150.7,92.3c-0.2-0.6-1.7-4-2.8-6.8l-9.2-24.6h-7.2c0,0-2.1,5.8-2.3,6.7l-6.7,19.1c-0.9,2.4-2.1,5.6-2.1,5.6
				h5.9c0,0,1.7-5.3,2-6.3l0.9-2.7h10.2l1.4,4c0.3,0.8,1.5,4.8,1.5,4.9H150.7z M130.6,78.9l3.4-10.2l0.2-0.6l3.6,10.8H130.6z"/>
			<path class="st1" d="M198.8,92.3c-1.7-2.4-2.3-3.4-3.6-5.2l-4.9-7.6c2.4-1.2,4.6-3.1,4.9-7.2c0.2-2.6-1.2-4.7-2-5.4
				c-1.2-1-2.3-1.5-4-1.7c-1.3-0.2-2.2-0.2-3-0.2h-11.5c0,0,0.1,3.8,0.1,5.9v15.4c0,2.2-0.1,5.9-0.1,5.9h7.1c0,0-0.2-3.8-0.2-5.9
				l0.1-5c0,0,1.5,0,2.6,0l4.5,8.2c0.6,1.1,1.5,2.4,1.7,2.7H198.8z M186.2,77c-1.1,0.6-3.5,0.4-4.6,0.3l0.1-7.8l0.7,0
				c2.2-0.2,3.8,0.1,4.4,0.4c1,0.4,1.6,1.4,1.6,2.9C188.4,75.1,187.6,76.3,186.2,77"/>
			<path class="st1" d="M381.4,89.6c0-1.5,1.2-2.7,2.7-2.7c1.5,0,2.7,1.2,2.7,2.7c0,1.5-1.2,2.7-2.7,2.7
				C382.6,92.3,381.4,91.1,381.4,89.6 M386.1,89.6c0-1.3-0.9-2.2-2-2.2c-1.1,0-2,0.9-2,2.2s0.9,2.2,2,2.2
				C385.2,91.8,386.1,90.9,386.1,89.6 M383,88.1h1.1c0.7,0,1.1,0.3,1.1,0.9c0,0.5-0.3,0.8-0.8,0.8l0.8,1.3h-0.6l-0.8-1.3h-0.3v1.3
				H383V88.1z M383.6,89.4h0.5c0.3,0,0.6,0,0.6-0.5c0-0.4-0.3-0.4-0.6-0.4h-0.5V89.4z"/>
		</g>
	</g>
	<path class="st2" d="M306.5,100.6c-53.1-11.6-75.8,6.6-75.8,6.6s24.7-14.6,75.7-3.5c52.1,11.3,75.8-6.9,75.8-6.9
		S355.8,111.3,306.5,100.6z"/>
</g>
</svg>
