<?xml version="1.0" encoding="utf-8"?>
<!-- Generator: Adobe Illustrator 21.0.0, SVG Export Plug-In . SVG Version: 6.00 Build 0)  -->
<svg version="1.1" id="Layer_1" xmlns="http://www.w3.org/2000/svg" xmlns:xlink="http://www.w3.org/1999/xlink" x="0px" y="0px"
	 viewBox="0 0 480 151" style="enable-background:new 0 0 480 151;" xml:space="preserve">
<style type="text/css">
	.st0{fill:#FFFFFF;}
	.st1{fill:#022169;}
	.st2{fill:#FFCE00;}
	.st3{fill:url(#SVGID_1_);}
	.st4{fill:url(#SVGID_2_);}
</style>
<rect class="st0" width="480" height="151"/>
<g>
	<g>
		<path class="st1" d="M221.3,105.6c0,10.2,7.8,18.2,17.9,18.2l0,0c7.9,0,13.7-4,16.3-11.1l0,0H250c-2,4.1-5.7,6.6-10.8,6.6l0,0
			c-6.1,0-11.9-4.5-12.7-12.1l0,0l0-0.4h30c-0.1-12.2-8.7-19.5-17.6-19.5l0,0C229.1,87.3,221.3,95.5,221.3,105.6L221.3,105.6z
			 M250.6,101.8l0.1,0.5h-24.1l0,0l0.1-0.5c1.6-6.3,6.9-10,12-10l0,0C244.2,91.8,249.2,95.8,250.6,101.8L250.6,101.8z"/>
	</g>
	<g>
		<path class="st1" d="M149.8,91.9c3.1,0,5.3,0.5,6.8,1.5l0,0c1.5,0.9,2.3,2.3,2.3,3.9l0,0c0,1.6-0.8,2.9-2.7,3.7l0,0
			c-1.9,0.8-4.8,1.3-9.2,1.5l0,0c-9.1,0.5-14.1,3.7-14.1,10.7l0,0c0,7.4,6.3,10.6,13.5,10.6l0,0c5.4,0,9.5-1.8,11.9-4.8l0,0l0.6-0.8
			l0,1c0.1,1.5,0.4,2.7,0.8,3.7l0,0h5c-0.5-1.5-0.9-3.8-0.9-5.4l0,0l0-19.6c0-6.4-4.6-10.6-14-10.7l0,0c-8.8,0-14.4,4.3-15,11l0,0
			h5.3C141,93.1,146,91.9,149.8,91.9L149.8,91.9C149.7,91.9,149.8,91.9,149.8,91.9L149.8,91.9z M146.5,119.2c-2.3,0-4.5-0.4-6.1-1.4
			l0,0c-1.6-0.9-2.6-2.5-2.6-4.5l0,0c0-3.2,2-6.1,9.8-6.5l0,0c4.2-0.3,8.4-0.8,10.5-2.7l0,0l0.6-0.6v6.3
			C158.7,116.4,152.8,119.2,146.5,119.2L146.5,119.2C146.6,119.2,146.6,119.2,146.5,119.2L146.5,119.2z"/>
	</g>
	<g>
		<path class="st1" d="M115.3,111.1c0,8.2,4.7,12.8,11.7,12.8l0,0c0.5,0,1.1,0,1.6-0.1l0,0v-4.7c-0.2,0-0.4,0-0.5,0l0,0
			c-2.1,0-4-0.5-5.4-1.7l0,0c-1.4-1.3-2.3-3.3-2.3-6.3l0,0V92.9H132l0-4.9h-11.6v-5v0c0-0.7-0.1-2-0.9-3.1l0,0c-0.7-1-1.8-1.8-4.2-2
			l0,0V111.1L115.3,111.1z M132.4,93.3v-0.4V93.3L132.4,93.3z"/>
	</g>
	<rect x="110.4" y="88.1" class="st2" width="4.9" height="4.9"/>
	<path class="st1" d="M192.9,94.8c0,0-2.6-7.5-12-7.5c-8,0-12.8,5.4-12.8,14.1v15.7v5.9h5.1v-21.8c0-2.8,0.7-5.2,2.1-6.8
		c1.4-1.6,3.6-2.5,6.4-2.5c4.9,0,8.6,4,8.7,9.3h0v0.4v21.4h5v-21.4c0-5.5,3.7-9.7,8.8-9.7c2.8,0,5,0.9,6.4,2.5
		c1.4,1.6,2.1,4,2.1,6.8v21.8c0.8,0,2-0.3,3-0.9c1.1-0.8,2.1-2.1,2.1-5v-15.7c0-8.7-4.8-14.1-12.8-14.1
		C195.5,87.3,192.9,94.8,192.9,94.8z"/>
</g>
<g>
	<g>
		<linearGradient id="SVGID_1_" gradientUnits="userSpaceOnUse" x1="299.6522" y1="77.7197" x2="321.4117" y2="133.7744">
			<stop  offset="0" style="stop-color:#11B5E9"/>
			<stop  offset="0.1339" style="stop-color:#10ACE2"/>
			<stop  offset="0.351" style="stop-color:#0C94CE"/>
			<stop  offset="0.6226" style="stop-color:#066DAD"/>
			<stop  offset="0.8407" style="stop-color:#00498F"/>
		</linearGradient>
		<path class="st3" d="M369.6,98.9c0,0-3.1-12.6-27.4-18.2c-4.6-0.9-9.2-2.1-13.9-3.3C275.2,63.5,232.2,37.5,211.6,10
			c10.6,26.4,36.4,55.7,72.1,80.4l0,0c7.4,5.1,15.4,9.7,23.4,14.7c11.4,7-3,14-10.5,17.6C306.4,118.4,343,102.9,369.6,98.9z"/>
	</g>
	<linearGradient id="SVGID_2_" gradientUnits="userSpaceOnUse" x1="237.6165" y1="139.0012" x2="308.0982" y2="96.6653">
		<stop  offset="0.3132" style="stop-color:#11B5E9"/>
		<stop  offset="0.3972" style="stop-color:#10ACE2"/>
		<stop  offset="0.5334" style="stop-color:#0C94CE"/>
		<stop  offset="0.7038" style="stop-color:#066DAD"/>
		<stop  offset="0.8407" style="stop-color:#00498F"/>
	</linearGradient>
	<path class="st4" d="M296.6,122.6c7.5-3.5,21.9-10.6,10.5-17.6c-6.7-4.1-13.3-8-19.6-12.1c-0.1,0-0.1-0.1-0.2-0.1
		c-0.6-0.4-1.2-0.8-1.7-1.1c-0.3-0.2-0.6-0.4-0.9-0.6c19.1,13.9,14.4,18.4,2.2,28c-6.7,5.2-20,14.8-30.7,22.4
		c-0.5,0.3-0.4,0.7-0.3,0.9c0.1,0.2,0.5,0.5,1.2,0c12.6-7.2,26.6-14.2,41.8-20.7C298,122,297.3,122.4,296.6,122.6z"/>
</g>
</svg>
