<?xml version="1.0" encoding="utf-8"?>
<!-- Generator: Adobe Illustrator 21.0.0, SVG Export Plug-In . SVG Version: 6.00 Build 0)  -->
<svg version="1.1" id="Layer_1" xmlns="http://www.w3.org/2000/svg" xmlns:xlink="http://www.w3.org/1999/xlink" x="0px" y="0px"
	 viewBox="0 0 480 151" style="enable-background:new 0 0 480 151;" xml:space="preserve">
<style type="text/css">
	.st0{fill:#FFFFFF;}
	.st1{fill:#00377B;}
	.st2{fill:#00A1E4;}
</style>
<rect class="st0" width="480" height="151"/>
<g>
	<g>
		<g>
			<g>
				<g>
					<g>
						<g>
							<g>
								<g>
									<g>
										<g>
											<path class="st1" d="M377.5,80.5L377.5,80.5c5.7,5.8,9.5,13.6,10.1,22.3c1.3,19.3-13.2,36-32.5,37.4
												c-9.1,0.7-17.5-2.2-24.2-7.5l0,0c6.9,6.4,16.2,10,26.3,9.3c19.3-1.3,33.8-18.1,32.5-37.3C389,94.9,384.4,86.3,377.5,80.5
												z"/>
											<path class="st1" d="M315.5,120.3c-1.1,0.6-1.4,1.6-0.8,3c0.5,1.3,1.4,1.9,2.2,1.5c0.7-0.3,0.8-0.9,0.5-2.5l-0.1-0.6
												c-0.3-1.6-0.3-2.2-0.1-2.9c0.2-0.7,0.6-1.2,1.3-1.5c1.6-0.6,3.1,0.3,4,2.6c1,2.4,0.4,4.2-1.4,5l-0.4-1.2
												c1.3-0.6,1.6-1.8,0.9-3.5c-0.6-1.4-1.5-2-2.4-1.7c-0.8,0.3-1,1-0.7,2.6l0.1,0.7l0.1,0.6c0.2,1.2,0.2,1.6,0.1,2.1
												c-0.2,0.6-0.6,1.1-1.2,1.4c-1.5,0.6-2.9-0.3-3.7-2.3c-0.9-2.2-0.4-3.8,1.3-4.5L315.5,120.3z"/>
											<path class="st1" d="M314.5,107.6l5.3-4.5l0,1.7l-4.5,3.7l1.5,1.6l3.2-0.1l0,1.3l-9,0.2l0-1.3l3.5-0.1h0.5l0.5,0
												l-0.3-0.3l-0.3-0.3l-4-4.3l0-1.7L314.5,107.6z"/>
											<path class="st1" d="M318.5,93.7l3.5,1.2l-0.4,1.2l-3.5-1.2l-6.2,1.9l0.5-1.5l3.9-1.1l0.5-0.1c0.2-0.1,0.3-0.1,0.7-0.2
												c-0.3-0.4-0.4-0.4-0.7-0.9l-2.4-3.2l0.5-1.4L318.5,93.7z"/>
											<path class="st1" d="M324.6,77.1l-1.9,2.3l5.7,4.7l-1.4,1.7l-5.7-4.7l-1.9,2.3l-1.3-1.1l5.2-6.3L324.6,77.1z"/>
											<path class="st1" d="M336.8,68.5l-4.6,2.7l1,1.7l4.2-2.5l0.8,1.3l-4.2,2.4l1.1,1.9l4.6-2.7l0.8,1.4l-6.5,3.8l-4.5-7.8
												l6.4-3.8L336.8,68.5z"/>
											<path class="st1" d="M354.3,72l-2.4,0.1l-1.2-1.9l-3.6,0.6l-0.5,2.2l-2.2,0.6l2.4-9.9l2.2-0.4L354.3,72z M349.1,67.4
												c-0.5-0.8-0.7-1.2-1-1.8c-0.1,0.6-0.2,1.1-0.4,2l-0.4,1.7l2.6-0.4L349.1,67.4z"/>
											<path class="st1" d="M368.8,74.9l-1.9-0.7l0.7-2.7c0.1-0.3,0.2-0.7,0.4-1.3c0.1-0.6,0.3-1,0.4-1.3
												c0.1-0.4,0.2-0.7,0.3-1.1l0.2-0.6c-0.5,0.9-0.8,1.2-1.2,2c-0.2,0.3-0.4,0.6-0.6,0.8l-2.6,3.6l-1.7-0.4l-0.5-4.3
												c0-0.2-0.1-0.5-0.1-1c0-0.6-0.1-1-0.1-1.3c0-0.2,0-0.6,0-1.1l-0.2,1.1c-0.3,1.2-0.4,1.7-0.8,3.1l-0.7,2.9l-2-0.3l2.3-8.8
												l3,0.6l0.4,4.2c0.1,1,0.1,1.8,0.1,3c0.3-0.7,0.5-0.9,0.8-1.5c0.3-0.4,0.5-0.8,0.7-1.1l2.4-3.4l2.9,1L368.8,74.9z"/>
											<path class="st1" d="M351.5,92.3c-1.1,1-3.3,3.1-5.3,5.1l-2.4,2.3c-1.9-0.4-3.8-0.5-5.8-0.5c-4.4,0-8.4,1.2-10.3,3.1
												c-0.7,0.7-1,1.5-1,2.3c0.1,2.1,2.5,3.2,3.2,3.5c3.9,1.4,7.2,1,10.6-1.4c1.9-1.3,4.2-3.5,6-5.2c1.4,0.3,3,0.7,4.7,1.2
												l1.6,0.4c-2,2-4.1,4.1-6,5.8l-0.2,0.1c-2.7,2.4-4.6,4.1-7.4,4.7c-2,0.4-3.4,0-3.8-0.3c0,0-0.1,0.1-0.1,0.1
												c1.6,1.3,3.2,2.1,5.8,1.9c2.5-0.2,5.4-1.8,8.4-4.6l4-3.9l2.8-2.8c0,0,5.7,1.7,5.7,1.7c0.1,0,0.1,0,0.1,0
												c0,0-3.5,3.4-3.5,3.4l-3,3c-3.1,3-4.8,4.6-6.6,5.8c-3,2.1-5.6,3.2-7.8,3.4c-1.2,0.1-2.9,0-4.3-0.8
												c-0.1,0-0.2,0.1-0.2,0.1c1.5,1.3,3.4,2.9,6.6,2.8c3.7-0.1,6.9-1.8,11.9-6.5c2.3-2.1,4.6-4.5,6.6-6.5l3.7-3.8
												c2.5,0.6,4.6,0.8,7.1,0.7c3.5-0.1,6.6-1.8,6.6-3.7c0.1-1.4-1.1-2.2-1.9-2.6c-0.6-0.4-2.2-1.3-4.3-1.3
												c-2.6,0-5.4,1.2-8.2,3.5l-1.9,1.7c0,0-0.7-0.2-0.7-0.2l-5.2-1.5c1.5-1.4,2.8-2.6,4-3.7c2.9-2.5,6-3.6,7.8-3.7
												c1.3-0.1,3.7,0,4.6,0.7c0,0,0.1-0.1,0.1-0.1c-2.6-2.2-4.8-2.5-6.6-2.5c-1.8,0-4.7,0.6-8.2,3.3c-1.4,1.1-3.3,3-5.3,5
												c0,0-2.6-0.8-2.6-0.8l-0.6-0.2l-2.8-0.8c0.1,0,1.6-1.5,1.6-1.5c1.8-1.9,3.6-3.6,5-4.7c5-4.2,8.1-4.7,10.3-4.7
												c2.4,0,4.3,0.5,5.6,1.5c0,0,0.1-0.1,0.1-0.1c-2.8-2.5-4.8-3.4-8.3-3.4C358.7,87.5,355.1,89.2,351.5,92.3z M331.9,107.3
												c-1.6-0.1-2.4-0.8-2.4-2c0-0.1,0.1-4.1,9.2-4.6c1,0,2.2-0.1,3.9,0.1c-0.1,0-1,0.9-1,0.9l-0.6,0.5
												C338.8,104.2,335.2,107.5,331.9,107.3z M368.6,104.1c2.6-1.8,4.8-2.7,6.1-2.6c0.8,0,1.8,0.3,1.8,1.3c0,1-1,1.9-2.8,2.5
												c-1.7,0.6-4.2,0.7-7,0.4C367.4,105,368,104.4,368.6,104.1z"/>
										</g>
									</g>
									<line class="st1" x1="350.6" y1="106" x2="350.6" y2="108.7"/>
								</g>
							</g>
							<path class="st1" d="M372.5,67.7c0.3-0.7,1.2-1.1,1.9-0.8c0.8,0.3,1.1,1.2,0.8,1.9c-0.3,0.7-1.2,1.1-2,0.8
								C372.5,69.3,372.1,68.4,372.5,67.7z M374.9,68.9c0.3-0.6,0.1-1.4-0.5-1.7c-0.6-0.3-1.4-0.1-1.7,0.5c-0.3,0.6-0.1,1.4,0.5,1.7
								C373.8,69.7,374.6,69.5,374.9,68.9z M374.1,69.3l-0.3-0.2l-0.1-0.9l-0.2-0.1l-0.4,0.7l-0.2-0.1l0.8-1.4l0.6,0.3
								c0.3,0.1,0.5,0.4,0.3,0.7c-0.1,0.3-0.4,0.3-0.7,0.1L374.1,69.3z M373.9,68.1c0.2,0.1,0.5,0.3,0.6,0.1
								c0.1-0.1-0.1-0.3-0.2-0.4l-0.4-0.2l-0.2,0.4L373.9,68.1z"/>
						</g>
					</g>
					<path class="st2" d="M186.6,27.6h6.2v-6.2h6.2v-6.2h-6.2V8.9h-6.2v6.2h-6.2v6.2h6.2V27.6z M227.1,26c-6,0-10.9,4.9-10.9,10.9
						c0,6,4.9,10.9,10.9,10.9c6,0,10.9-4.9,10.9-10.9C238,30.9,233.1,26,227.1,26z M152.4,63.5h74.7V51h-74.7V63.5z M163.3,37
						c0-6-4.9-10.9-10.9-10.9c-6,0-10.9,4.9-10.9,10.9c0,6,4.9,10.9,10.9,10.9C158.4,47.9,163.3,43,163.3,37z M191.3,37
						c0,6,4.9,10.9,10.9,10.9c6,0,10.9-4.9,10.9-10.9c0-6-4.9-10.9-10.9-10.9C196.2,26,191.3,30.9,191.3,37z M177.3,47.9
						c6,0,10.9-4.9,10.9-10.9c0-6-4.9-10.9-10.9-10.9c-6,0-10.9,4.9-10.9,10.9C166.4,43,171.3,47.9,177.3,47.9z M258.2,75.9
						l-9.3,28.1l-9.3-28.1h-31.1v49.9h18.7V88.4l12.4,37.4h18.7l12.4-37.4v37.4h18.7V75.9H258.2z M171.1,75.9h-18.7v49.9h49.8v-12.6
						h-31.1V75.9z M146.2,75.9h-18.6l-18.7,18.7V75.9H90.2v49.9h18.7v-18.7l18.7,18.7h24.9l-28-28.1L146.2,75.9z"/>
				</g>
			</g>
		</g>
	</g>
</g>
</svg>
