<?xml version="1.0" encoding="utf-8"?>
<!-- Generator: Adobe Illustrator 21.0.0, SVG Export Plug-In . SVG Version: 6.00 Build 0)  -->
<svg version="1.1" id="Layer_1" xmlns="http://www.w3.org/2000/svg" xmlns:xlink="http://www.w3.org/1999/xlink" x="0px" y="0px"
	 viewBox="0 0 480 151" style="enable-background:new 0 0 480 151;" xml:space="preserve">
<style type="text/css">
	.st0{fill:#EC1C24;}
	.st1{fill:#FFFFFF;}
	.st2{fill-rule:evenodd;clip-rule:evenodd;fill:#FFFFFF;}
</style>
<g>
	<rect class="st0" width="480" height="151"/>
	<rect class="st0" width="480" height="151"/>
</g>
<g>
	<path class="st1" d="M59.5,36.6h-10l-27.1,69.8H36l6.6-17h23.2l7,17h14.5L59.5,36.6z M47.2,78.1l7.3-20.8l7.3,20.8H47.2z"/>
	<rect x="132.2" y="56.2" class="st2" width="14.3" height="50.2"/>
	<path class="st2" d="M147.2,43.1c0,4.4-3.5,7.9-7.9,7.9c-4.4,0-7.9-3.5-7.9-7.9c0-4.3,3.6-7.9,7.9-7.9
		C143.7,35.2,147.2,38.8,147.2,43.1"/>
	<path class="st2" d="M333.4,102.6c0,0,0.6,1.8,1.9,3c1.3,1.1,3.5,0.9,3.5,0.9h8.4c0,0-0.2,0-0.9-2.3c-0.7-2.3-0.9-6.9-0.9-6.9V68.1
		c-1-6.6-5.3-11.1-15.6-12.8c-12-2.1-24.2,5.2-24.2,5.2l4.8,9.1c6.5-3.7,10.2-4.2,15.2-3.7c7.1,0.7,5.9,8.6,5.9,8.6h-11.4
		c-22.2,3.3-16.9,21.6-16.9,21.6c2,6.4,6.2,10.7,16,11.3c5.1,0.3,8.8-1.2,11.1-2.6L333.4,102.6z M331.9,93.6c0,0-3.2,3.1-10.4,2.6
		c-7.1-0.5-7.3-11.2,0.3-12c0,0,7.5,0,10-0.3V93.6z"/>
	<path class="st2" d="M184.3,102.6c0,0,0.6,1.8,1.9,3c1.3,1.1,3.5,0.9,3.5,0.9h8.3c0,0-0.2,0-0.9-2.3c-0.7-2.3-0.9-6.9-0.9-6.9V68.1
		c-1-6.6-5.3-11.1-15.6-12.8c-11.9-2.1-24.1,5.2-24.1,5.2l4.8,9.1c6.5-3.7,10.2-4.2,15.2-3.7c7.1,0.7,5.9,8.6,5.9,8.6h-11.5
		c-22.2,3.3-16.9,21.6-16.9,21.6c2,6.4,6.1,10.7,16,11.3c5.1,0.3,8.8-1.2,11.1-2.6L184.3,102.6z M182.9,93.6c0,0-3.2,3.1-10.4,2.6
		c-7.1-0.5-7.3-11.2,0.3-12c0,0,7.5,0,10-0.3V93.6z"/>
	<path class="st2" d="M95.1,101.3c-0.6-1.1-1-2.2-1.4-3.3C90.7,90,76.5,56.1,76.5,56.1h14.1L102.5,88l11.6-31.8h14.1l-21.1,50.7
		h-4.6C98.8,106.9,96.6,104.3,95.1,101.3"/>
	<path class="st2" d="M280.3,96c-5-0.7-10.5-7.4-10.1-14.9c0.5-11.1,8.2-16.2,16.3-15.3c5.1,0.6,7.9,2.9,10.5,4.3V58.6
		c-4-2.3-9.6-3.6-14.6-3.6c-14.8,0-25.8,11.5-25.8,26.1c0,19.3,12,26.6,26.9,26.6c6,0,11.5-1.9,16-5.2l-3.8-10.1
		C292.9,93.8,289.4,97.2,280.3,96"/>
	<path class="st1" d="M377.4,24.5c0,0,6.7,37.2,35.1,69.7c0,0-29,0-41-19.8C360.9,57,368.3,30.7,377.4,24.5"/>
	<path class="st1" d="M421.3,103.8l16.3,0.4c0,0-1.4-9-25.1-9.9L421.3,103.8z"/>
	<path class="st1" d="M383.4,103.8h37.9c0,0,15.2,15.2,36.3,21.9c0,0-12.7,2.9-28.6-2.6c-16-5.4-21.2-16.1-42.1-17
		C386.9,106.2,383.4,106.1,383.4,103.8"/>
	<path class="st2" d="M213.7,56.1c-1.6-0.6-3.4-0.7-5.1-0.7c-1.3,0-2.6,0.1-3.8,0.1V106h13.8V71.4c0.1-0.5,1.6-1.9,4.3-3.2
		c2.3-1.1,4.1-1.6,6-1.6c1.1,0,4.6-0.1,6.6,2.2c1.7,2.1,1.3,3.8,1.3,7.9V106h13.6v-0.1v-3.5v-7.3c0-3,0-5.9,0-8.8c0-2.7,0-5.4,0-8.1
		c0-3.7,0.1-7.3-0.6-11c-0.2-1.3-0.6-2.5-1.1-3.7c-0.3-0.8-0.7-1.6-1.2-2.4c-0.6-1-1.4-1.9-2.2-2.8c-1.3-1.3-3.4-2.4-5.2-3.1
		c-3.5-1.3-7.3-1.2-10.9-0.3c-3.4,0.8-6.7,2.4-9.7,4.2l-1.8,1.2c0.1,0-1.2-2-1.3-2.1c-0.5-0.7-1.1-1.2-1.9-1.6
		C214.2,56.3,213.9,56.2,213.7,56.1"/>
</g>
</svg>
