<?xml version="1.0" encoding="utf-8"?>
<!-- Generator: Adobe Illustrator 21.0.0, SVG Export Plug-In . SVG Version: 6.00 Build 0)  -->
<svg version="1.1" id="Layer_1" xmlns="http://www.w3.org/2000/svg" xmlns:xlink="http://www.w3.org/1999/xlink" x="0px" y="0px"
	 viewBox="0 0 480 151" style="enable-background:new 0 0 480 151;" xml:space="preserve">
<style type="text/css">
	.st0{fill:#FFFFFF;}
	.st1{fill:#0060A9;}
	.st2{fill:none;}
</style>
<rect class="st0" width="480" height="151"/>
<g>
	<rect x="374.7" y="43.5" class="st0" width="76.6" height="70.2"/>
	<g>
		<g>
			<path class="st1" d="M428.1,105.8c-4.3-1.2-9.5-1.3-15.2-0.2c-5.8,1.1-11.9,3.4-17.7,6.7c-0.9,0.5-1.7,1-2.6,1.6H438
				c-0.1-0.3-0.3-0.7-0.5-1C435.7,109.5,432.5,107.1,428.1,105.8z"/>
			<path class="st1" d="M439.7,101.9c-2.2-4-6.1-7-11.4-8.5c-5.2-1.5-11.5-1.6-18.3-0.3c-7,1.3-14.4,4.1-21.2,8.1
				c-5.2,3-9.9,6.5-14,10.4v2.3h15.2c1.8-1.4,3.7-2.7,5.7-4c7.1-4.5,15.1-7.5,22.3-8.5c7.2-1,13.4,0,17.4,2.9c3.2,2.2,5,5.5,5.3,9.6
				h0.5l0.2-1.9C441.9,108.2,441.3,104.8,439.7,101.9z"/>
			<path class="st1" d="M376.5,80.1c-0.6,0.3-1.1,0.6-1.7,1v6.5c15.7-11.5,32.7-15.5,46.7-16.4C409.7,67.8,392.7,70.8,376.5,80.1z"
				/>
			<path class="st1" d="M428.5,72.7c0.6,0.5,1.1,1,1.6,1.5c0,0,3.7,3.9,5,7.5l-1.2-1.9c-1.9-3-4.6-5.3-7.9-6.9
				c-15.2,1.3-34.4,6-51.1,19.7v1c4.5-3.6,9.3-6.6,14.3-9.2c5.4-2.7,10.8-4.8,16.2-6c5.4-1.3,10.4-1.7,15-1.3
				c8.8,0.8,15,4.6,18.2,11.1c0,0,2.4,4.9,2.6,9.8l-0.7-2.8c-0.4-1.5-0.9-2.8-1.6-4.1c-2.4-4.5-6.7-7.7-12.6-9.4
				c-5.7-1.6-12.7-1.8-20.2-0.3c-7.8,1.5-15.9,4.6-23.5,9c-2.7,1.5-5.2,3.2-7.7,5v15.2c2.7-2.8,5.7-5.4,9-7.9
				c4.9-3.6,10.1-6.7,15.7-9.1c11.1-4.8,22-6.3,29.9-4.1c7.3,2,11.6,7,12.5,14.5c0,0,0.5,4.8-0.5,10h10.1V73.7
				C448.8,73.2,440,72,428.5,72.7z"/>
			<g>
				<path class="st1" d="M389.7,58.2c-4.9,0.8-9.9,2.4-14.9,4.6v1.9c6.7-3.5,13.3-5.7,19.7-7.1C393,57.7,391.4,57.9,389.7,58.2z"/>
				<path class="st1" d="M374.8,37.1v20.5c0,0,8.6-3,17.8-1.6l-3.7,0.1c-4.5,0.2-9.3,1.2-14.1,3v2.3c7.5-3.5,16.4-5.2,24-4.7
					c19.2-3.3,34.5,0.7,34.5,0.7c-3-0.5-14.7-2.2-29.2,0c1.4,0.3,3.5,1,5.7,2.3l-1.8-0.6c-1.8-0.6-3.7-1.1-5.7-1.3
					c-8.7,1.5-18.3,4.4-27.6,9.8v1.1c14-7.6,29-10.5,39.8-6.6c17.4-1.3,30.3,2.3,30.3,2.3c-2.9-0.5-13.3-2-26.8-0.7
					c0.8,0.4,4,2.3,5.4,4.3l-0.8-0.6c-1.8-1.5-3.9-2.6-6.3-3.5c-12.7,1.4-27.7,5.2-41.7,14.5v1c1.2-0.8,2.4-1.5,3.6-2.3
					c10-5.8,20.5-9.4,29.6-10c7.2-0.5,13.3,0.8,18.1,3.8c14.4-0.3,24.7,2.5,25.4,2.7V37.1H374.8z"/>
			</g>
			<path class="st1" d="M374.8,70.1v4.2c12.3-7.3,25-10.6,36.1-11.8C400.7,60.9,387.6,63.5,374.8,70.1z"/>
		</g>
	</g>
	<path class="st2" d="M464.4,105.9c-1.9,0-3.6,1.6-3.6,3.6c0,2,1.7,3.6,3.6,3.6c2,0,3.7-1.6,3.7-3.6
		C468,107.5,466.3,105.9,464.4,105.9z M466.4,111.9h-0.8l-1.4-2.2h-0.8v2.2h-0.7v-4.7h2c0.8,0,1.7,0.2,1.7,1.2
		c0,0.9-0.6,1.3-1.5,1.3L466.4,111.9z"/>
	<path class="st2" d="M464.7,107.8h-1.2v1.2h0.8c0.6,0,1.6,0.1,1.6-0.6C465.8,107.9,465.2,107.8,464.7,107.8z"/>
	<path class="st1" d="M466.5,108.4c0-1-0.8-1.2-1.7-1.2h-2v4.7h0.7v-2.2h0.8l1.4,2.2h0.8l-1.4-2.2
		C465.9,109.7,466.5,109.3,466.5,108.4z M464.2,109h-0.8v-1.2h1.2c0.5,0,1.1,0.1,1.1,0.6C465.8,109.1,464.8,109,464.2,109z"/>
	<path class="st1" d="M464.4,105.3c-2.4,0-4.3,1.8-4.3,4.2c0,2.4,1.9,4.3,4.3,4.3c2.4,0,4.3-1.9,4.3-4.3
		C468.7,107.2,466.8,105.3,464.4,105.3z M464.4,113.2c-1.9,0-3.6-1.6-3.6-3.6c0-2,1.7-3.6,3.6-3.6c2,0,3.7,1.6,3.7,3.6
		C468,111.6,466.3,113.2,464.4,113.2z"/>
	<path class="st1" d="M171.9,54.7h9.7c1.7,3.6,15.6,33.6,15.6,33.6h-8.8l-3.6-7.8h-16l-3.5,7.8h-8.9l0,0L171.9,54.7z M181.9,74.3
		l-5.2-11.5l-5.2,11.5H181.9L181.9,74.3z"/>
	<path class="st1" d="M285.9,62.2c-5.6,0-8.3,2.9-8.3,2.9l-0.5-2.4h-7.5c0.3,0.9,0.8,2.6,0.8,4.1v21.4h7.4V73.5c0-4,2.5-6.1,8.1-6.1
		c3.1,0,4.9,1,4.9,6.1v14.8h7.4V73.5C298.3,65.8,295.8,62.2,285.9,62.2z"/>
	<path class="st1" d="M319.3,62.3c-12.7,0-15.5,6-15.5,13.2c0,7.3,2.8,13.3,16.1,13.3c4.9,0,9.4-0.9,10.5-1.1
		c0.2-1.3,0.6-4.1,0.8-5.1c-0.7,0.1-6.5,1.1-11.3,1.1c-6.2,0-7.9-2.4-8.4-5.6H333v-2.6C333,66.4,328.1,62.3,319.3,62.3z M311.6,73
		c0.4-3.2,1.9-5.6,7.8-5.6c4.3,0,5.9,2.8,6.1,5.6H311.6z"/>
	<path class="st1" d="M67.9,62.3c-9.3,0-15.5,4.1-15.5,13.3c0,9.2,6.2,13.3,15.5,13.3c9.3,0,15.5-4,15.5-13.3
		C83.4,66.4,77.2,62.3,67.9,62.3z M67.9,83.8c-6.2,0-8.1-3.1-8.1-8.2c0-5.1,1.8-8.1,8.1-8.1c6.2,0,8.1,3.1,8.1,8.1
		C75.9,80.7,74.1,83.8,67.9,83.8z"/>
	<path class="st1" d="M150.7,70.5c0-5.1-5.5-8.2-13.6-8.2c-4.2,0-9.3,1.6-11.1,2.2c-0.2,1.1-0.7,4.5-0.8,5.2c1.6-0.4,8-2.3,11.9-2.3
		c4.1,0,6.2,1.4,6.2,3.4V73c0,0-5-0.5-6.8-0.5c-8.1,0-13,2.9-13,8.2c0,6.7,7.4,8.2,11.2,8.2c5.1,0,7.8-1.4,9-2.5l0.4,2h7.5
		c-0.1-0.4-0.8-2.2-0.8-4.6V70.5z M143.2,78.6c0,4.7-4.5,5.1-8.7,5.1c-1.4,0-3.7-0.3-3.7-3.1c0-1.8,2.5-3.1,5.6-3.1h6.8V78.6z"/>
	<path class="st1" d="M31.6,53.8c8.7,0,14.2,2.7,17.2,7.1l0,0l-7.8,3c-1.7-2.4-4.5-3.9-9.3-4l0,0h-0.2c-4.7,0-7.5,1.5-9.2,3.8l0,0
		c-1.5,2-2.3,4.6-2.3,7.5l0,0v0.5h0c0,2.8,0.9,5.4,2.3,7.4l0,0c1.7,2.3,4.5,3.8,9.2,3.8l0,0l0.2,0c4.7,0,7.5-1.5,9.2-3.8l0,0l7.9,3
		c-3,4.3-8.5,6.9-17.1,6.9l0,0c0,0,0,0,0,0l0,0c-7.7,0-12.8-2-16-5.5l0,0c-2.9-3.1-4.3-7.3-4.3-11.9l0,0v-0.3
		c0-4.5,1.5-8.7,4.3-11.8l0,0C18.8,55.9,23.9,53.7,31.6,53.8L31.6,53.8z"/>
	<path class="st1" d="M248,84.3V54.8h-7.4v29.5c0,1.8,0.6,3.6,0.8,4h7.4C248.7,87.9,248,86.1,248,84.3z"/>
	<path class="st1" d="M223.2,73.4c0-4,2.9-6,8.1-6c0.8,0,4.2,0.4,5.7,0.6c-0.1-0.7-0.6-3.8-0.8-5.1c-1.1-0.2-3.4-0.6-4.9-0.6
		c-4.4,0-6.8,1.6-8.2,2.8l-0.6-2.3h-7.5c0.1,0.5,0.8,2.3,0.8,4v21.5h7.4V73.4z"/>
	<path class="st1" d="M104.5,62.3c-4.7,0-8.3,2.7-8.3,2.7s-0.4-1.5-0.6-2.2h-7.5c0.3,0.9,0.8,2.7,0.8,4.6v29h7.4V86.3
		c1.5,1.1,4.3,2.5,8.1,2.5c12.5,0,14.3-5.9,14.3-13.3C118.7,68.3,116.9,62.3,104.5,62.3z M104.5,83.8c-6.3,0-8.1-3.6-8.1-8.2
		c0.1-4.9,1.7-8.1,8.1-8.1c5.7,0,6.8,3.6,6.8,8.1C111.3,80.2,110.2,83.8,104.5,83.8z"/>
	<path class="st1" d="M359.9,63.6v5.8c-1.5-0.8-3-1.4-4.6-1.8c-1.6-0.4-3.2-0.6-4.8-0.6c-1.8,0-3.1,0.2-4,0.6
		c-0.9,0.4-1.4,1.1-1.4,1.9c0,1.2,1.9,2.2,5.8,2.9l0.3,0.1l2.3,0.5c2.9,0.6,5,1.5,6.3,2.8c1.3,1.3,2,3,2,5.2c0,2.6-1,4.6-3.1,5.9
		c-2,1.3-5.1,2-9.2,2c-1.8,0-3.7-0.1-5.6-0.4c-1.9-0.3-3.9-0.6-5.8-1.2v-5.8c1.7,0.8,3.5,1.5,5.3,1.9c1.8,0.4,3.6,0.7,5.3,0.7
		c1.9,0,3.3-0.2,4.2-0.7c1-0.5,1.4-1.1,1.4-2c0-0.8-0.3-1.5-1-1.9c-0.7-0.5-2.3-0.9-4.8-1.4l-2.2-0.4c-3-0.6-5.2-1.5-6.6-2.7
		c-1.4-1.2-2.1-2.9-2.1-4.9c0-2.4,1.1-4.3,3.2-5.7c2.1-1.4,5.1-2,8.9-2c1.7,0,3.4,0.1,5.1,0.3C356.6,62.8,358.3,63.1,359.9,63.6z"/>
	<path class="st1" d="M262.9,84.3V62.7h-7.4v21.5c0,1.9,0.7,3.8,0.8,4h7.4C263.6,87.8,262.9,86.1,262.9,84.3z M259.2,60.8
		c1.6,0,2.7-0.2,3.3-0.7c0.6-0.4,0.9-1.2,0.9-2.4c0-1.1-0.3-1.9-0.9-2.3c-0.6-0.4-1.7-0.7-3.3-0.7c-1.6,0-2.7,0.2-3.3,0.7
		c-0.6,0.5-0.9,1.3-0.9,2.4c0,1.1,0.3,1.9,0.8,2.3C256.5,60.6,257.6,60.8,259.2,60.8z"/>
	<path class="st1" d="M208.3,84.3V62.7h-7.4v21.5c0,1.9,0.7,3.8,0.8,4h7.4C208.9,87.8,208.3,86.1,208.3,84.3z M204.5,60.8
		c1.6,0,2.7-0.2,3.3-0.7c0.6-0.4,0.9-1.2,0.9-2.4c0-1.1-0.3-1.9-0.9-2.3c-0.6-0.4-1.7-0.7-3.3-0.7c-1.6,0-2.7,0.2-3.3,0.7
		c-0.6,0.5-0.9,1.3-0.9,2.4c0,1.1,0.3,1.9,0.8,2.3C201.8,60.6,202.9,60.8,204.5,60.8z"/>
</g>
</svg>
