<?xml version="1.0" encoding="utf-8"?>
<!-- Generator: Adobe Illustrator 21.0.0, SVG Export Plug-In . SVG Version: 6.00 Build 0)  -->
<svg version="1.1" id="Layer_1" xmlns="http://www.w3.org/2000/svg" xmlns:xlink="http://www.w3.org/1999/xlink" x="0px" y="0px"
	 viewBox="0 0 480 151" style="enable-background:new 0 0 480 151;" xml:space="preserve">
<style type="text/css">
	.st0{fill:#2D2E76;}
	.st1{fill-rule:evenodd;clip-rule:evenodd;fill:#EC1651;}
	.st2{fill-rule:evenodd;clip-rule:evenodd;fill:#FFFFFF;}
</style>
<rect class="st0" width="480" height="151"/>
<g>
	<path class="st1" d="M51.4,28.2v9.4c0,1.4,0.7,2,2.7,2.6l28.4,9.9l1-0.4l0,0l0,0l0,0l0,0l0,0l0,0l0,0l0,0l0,0l0,0l0.1,0l0,0l0,0
		l0.1,0l0.1,0l0.1,0l0.1,0l0,0l0.1,0l0.1,0l0.1,0l0,0l0.1,0l0.1,0l0.1,0l0,0l0.1,0l0.1,0l0.1,0l0,0l0.1,0l0.1,0l0,0l0.1,0l0.1-0.1
		l0,0l0.1,0l0.1-0.1l0,0l0.2-0.1l0.1,0l0,0l0.2-0.1l0.1,0l0.3-0.1l0,0l0.2-0.1l0.1,0l0.1,0l0.1,0l0.1,0l0.2-0.1l0,0l0.2-0.1l0,0
		l0.2-0.1l0.1,0l0.1-0.1l0.1,0l0.1,0l0.1,0l0.1,0l0.1,0l0.1,0l0.1,0l0.1,0l0.1,0l0.1-0.1l0.1,0l0.2-0.1l0,0l0.2-0.1l0,0l0.2-0.1
		l0.1,0l0.1,0l0.1,0l0.1,0l0.2-0.1l0,0l0.3-0.1l0.1,0l0.2-0.1l0,0l0.1,0l0.2-0.1l0,0l0.1-0.1l0.1,0l0,0l0.1-0.1l0.1,0l0,0l0.1,0
		l0.1,0l0,0l0.1,0l0.1,0l0.1,0l0,0l0.1,0l0.1,0l0.1,0l0,0l0.1,0l0.1,0l0.1,0l0,0l0.1,0l0.1,0l0.1,0l0.1,0l0,0l0,0l0.1,0l0,0l0,0l0,0
		l0,0l0,0l0,0l0,0l0,0l0,0l0,0c1.1-0.4,2.6-0.4,2.6-2.2L51.4,28.2z"/>
	<path class="st1" d="M37.5,39.7c25.1,8.8,37.7,13.2,37.7,13.2c-10.5,3.8-15.7,5.6-15.7,5.6C46.9,54.2,40.7,52,40.7,52
		c-2.7-0.9-3.2-2.1-3.2-3.4V39.7z"/>
	<path class="st1" d="M90.3,58.2c-10.5,3.8-15.7,5.6-15.7,5.6c5.9,2.1,8.9,3.1,8.9,3.1c6.8-2.4,10.2-3.7,10.2-3.7
		c1.3-0.5,2.6-1.6,2.6-3C93.2,59.2,90.3,58.2,90.3,58.2z"/>
	<path class="st2" d="M59.1,109l-7.6,2.7v11.1c4.3-1.5,6.7-2.3,6.7-2.3c2.7-0.9,3.2-2.1,3.2-3.4v-5.2
		C61.4,109.6,61.4,108.1,59.1,109L59.1,109z"/>
	<path class="st2" d="M72.4,87.6L51.4,95v11.1c12.5-4.4,20-7,20-7c2.7-0.9,3.2-2.1,3.2-3.4v-5.2C74.7,88.3,74.7,86.8,72.4,87.6
		L72.4,87.6z"/>
	<path class="st2" d="M93.7,63.3c1.3-0.5,2.6-1.6,2.6-2.9v11.1c0,1.2-0.5,1.8-2.1,2.4c0,0-14.3,5.1-42.8,15.4c0,0,0-3.6,0-10.7
		c0,0,10-3.6,32-11.5l0,0l0,0l0,0l0,0l0,0l0,0l0,0l0,0l0,0l0,0l0.1,0l0,0l0,0l0.1,0l0.1,0l0.1,0l0.1,0l0,0l0.1,0l0.1,0l0.1,0l0,0
		l0.1,0l0.1,0l0.1,0l0,0l0.1,0l0.1,0l0.1,0l0,0l0.1,0l0.1,0l0,0l0.1,0l0.1-0.1l0,0l0.1,0l0.1-0.1l0,0L86,66l0.1,0l0,0l0.2-0.1l0.1,0
		l0.3-0.1l0,0l0.2-0.1l0.1,0l0.1,0l0.1,0l0.1,0l0.2-0.1l0,0l0.2-0.1l0,0l0.2-0.1l0.1,0l0.1-0.1l0.1,0l0.1,0l0.1,0l0.1,0l0.1,0l0.1,0
		l0.1,0l0.1,0l0.1,0l0.1-0.1l0.1,0l0.2-0.1l0,0l0.2-0.1l0,0l0.2-0.1l0.1,0l0.1,0l0.1,0l0.1,0l0.2-0.1l0,0l0.3-0.1l0.1,0l0.2-0.1l0,0
		l0.1,0l0.2-0.1l0,0l0.1-0.1l0.1,0l0,0l0.1-0.1l0.1,0l0,0l0.1,0l0.1,0l0,0l0.1,0l0.1,0l0.1,0l0,0l0.1,0l0.1,0l0.1,0l0,0l0.1,0l0.1,0
		l0.1,0l0,0l0.1,0l0.1,0l0.1,0l0.1,0l0,0l0,0l0.1,0l0,0l0,0l0,0L93.7,63.3L93.7,63.3L93.7,63.3L93.7,63.3L93.7,63.3L93.7,63.3
		L93.7,63.3z"/>
	<path class="st2" d="M138.6,100h-13.7V52.3l0,0h13.7v36.2h31.6l-5.8,11.5L138.6,100z M410.5,52.3h5.1h8.6h0.7c2.4,0,4.9,2,5.6,4.4
		l12.1,43.4h-13.7l-9.6-34.2l-8.8,24.9h-5.2h-8.5H396c-2.4,0-5.1-2-5.9-4.4l-7.3-20.5l-9.6,34.2h-13.7L373,52.3h5.1h8.6h1.7
		c1.9,0,3.9,1.5,4.6,3.4l8.2,23.1L410.5,52.3L410.5,52.3z M315.1,80.1h16.1l-8.1-16.6L315.1,80.1L315.1,80.1z M336.7,91.5h-27.2
		l-4.2,8.6h-13.7l23.2-47.7h2.8H328h0.6l0,0c1.7,0.3,3.7,1.7,4.5,3.4l21.5,44.3h-13.7L336.7,91.5L336.7,91.5z M293.8,61.4v-9h-21.9
		h-5.5H263h-4.8h-22.6v9l22.6,1.7v37h13.7V63L293.8,61.4L293.8,61.4z M197.9,80.1h16.1L206,63.5L197.9,80.1L197.9,80.1z M219.6,91.5
		h-27.2l-4.2,8.6h-13.7l23.2-47.7h2.8h10.3h0.6l0,0c1.7,0.3,3.7,1.7,4.5,3.4l21.6,44.3h-13.7L219.6,91.5z"/>
	<path class="st1" d="M37.5,63.9c0-3.9,0-5.8,0-5.8c0-1,0.8-1.5,2.2-0.9l12,4.2L39,65.9C37.9,66.3,37.5,65.3,37.5,63.9z"/>
	<path class="st2" d="M39,65.9c-1.1,0.4-1.5-0.4-1.6-1.7l0,0c0,2.3-0.2,3,1.1,3.5c0,0,3.6,1.3,10.8,3.8c2.4,0.8,1.8,0.9,4.2,0
		l40.7-14.7c1.6-0.6,2.1-1.1,2.1-2.4V43.9c0,1.4-1.3,1.8-2.6,2.2l0,0l0,0l0,0l0,0l0,0l0,0l0,0l0,0l0,0l0,0l0,0l-0.1,0l0,0l0,0
		l-0.1,0l-0.1,0l-0.1,0l-0.1,0l0,0l-0.1,0l-0.1,0l-0.1,0l0,0l-0.1,0l-0.1,0l-0.1,0l0,0l-0.1,0l-0.1,0l-0.1,0l0,0l-0.1,0l-0.1,0l0,0
		l-0.1,0l-0.1,0.1l0,0l-0.1,0L91.3,47l0,0l-0.2,0.1l-0.1,0l0,0l-0.2,0.1l-0.1,0l-0.3,0.1l0,0l-0.2,0.1l-0.1,0l-0.1,0l-0.1,0l-0.1,0
		l-0.2,0.1l0,0l-0.2,0.1l0,0l-0.2,0.1l-0.1,0l-0.1,0.1l-0.1,0l-0.1,0l-0.1,0l-0.1,0l-0.1,0l-0.1,0l-0.1,0l-0.1,0l-0.1,0L88,48.3
		l-0.1,0l-0.2,0.1l0,0l-0.2,0.1l0,0l-0.2,0.1l-0.1,0l-0.1,0l-0.1,0l-0.1,0l-0.2,0.1l0,0l-0.3,0.1l-0.1,0l-0.2,0.1l0,0l-0.1,0
		L85.9,49l0,0l-0.1,0.1l-0.1,0l0,0l-0.1,0.1l-0.1,0l0,0l-0.1,0l-0.1,0l0,0l-0.1,0l-0.1,0l-0.1,0l0,0l-0.1,0l-0.1,0l-0.1,0l0,0
		l-0.1,0l-0.1,0l-0.1,0l0,0l-0.1,0l-0.1,0l-0.1,0l-0.1,0l0,0l0,0l-0.1,0l0,0l0,0l0,0l0,0l0,0l0,0l0,0l0,0l0,0l0,0
		c-22,7.9-32,11.5-32,11.5L39,65.9z"/>
</g>
</svg>
