<?xml version="1.0" encoding="utf-8"?>
<!-- Generator: Adobe Illustrator 23.0.1, SVG Export Plug-In . SVG Version: 6.00 Build 0)  -->
<svg version="1.1" id="Layer_1" xmlns="http://www.w3.org/2000/svg" xmlns:xlink="http://www.w3.org/1999/xlink" x="0px" y="0px"
	 viewBox="0 0 480 151" style="enable-background:new 0 0 480 151;" xml:space="preserve">
<style type="text/css">
	.st0{fill:#FDEB01;}
</style>
<rect class="st0" width="480" height="151"/>
<g>
	<g>
		<path d="M338.6,52.2h9.8l3.2-15.1h18.6L367,52.2h12.3l-2.6,12.3h-12.3l-4.1,19.2c-0.9,4.3,0,4.9,5,4.9c2.3,0,4.2-0.1,6.6-0.2
			l-2.5,11.6c-3.9,0.5-8.9,0.9-14.4,0.9c-12.1,0-16.5-3-14.3-13.3l4.9-23.1h-9.8L338.6,52.2z"/>
		<polygon points="313.2,52.2 331.9,52.2 321.8,99.8 303.1,99.8 		"/>
		<polygon points="316.8,35.4 335.4,35.4 333,46.7 314.4,46.7 		"/>
		<polygon points="263.9,52.2 253.7,99.8 271.9,99.8 282,52.2 		"/>
		<path d="M303.5,50c-8.3,0-21.6,8.2-25.1,22.8l-0.9,3.3h0.3c2.6-6.3,9.3-9.7,18.2-9.7c2.4,0,5.1,0.3,7.3,0.8l3.6-17
			C305.8,50.1,304.6,50,303.5,50z"/>
		<polygon points="237.6,52.2 256.2,52.2 246.1,99.8 227.4,99.8 		"/>
		<polygon points="241.1,35.4 259.7,35.4 257.4,46.7 238.7,46.7 		"/>
		<path id="p" d="M167.2,52.2h18.1l-1.3,6.3h0.2c5-4.8,12.2-7.6,19.7-7.6c16.9,0,25.9,9.3,22.4,25.8c-2.9,13.8-15.5,25-33,25
			c-8.3,0-14-2.7-16.4-6.2h-0.2l-4.6,21.5h-18.6L167.2,52.2z M191.5,88.2c8.5,0,14.1-4.2,15.8-12.1c1.7-7.9-2.1-12.1-10.6-12.1
			c-8.7,0-14.3,4.7-15.9,12.1C179.2,83.5,182.8,88.2,191.5,88.2z"/>
		<path id="s" d="M114.9,85c-0.1,1.8,0.3,3.2,1.8,4.1c1.5,1,3.9,1.5,8,1.5c4.1,0,8.7-0.8,9.4-4.2c0.5-2.6-1.2-3.3-5.6-3.8l-16.2-2
			c-10.6-1.3-15.3-5.2-13.6-13.3c2.7-12.9,14.7-17,32.5-17c12.7,0,28.2,2.3,26.4,15.8h-20.9c0.3-2-0.8-3.3-2.5-4
			c-1.7-0.8-4.1-1.1-6.5-1.1c-5.4,0-8.8,1.2-9.5,4.5c-0.3,1.5,0.6,2.8,5.3,3.3l15.7,1.8c12.5,1.4,18,5.4,16,14.7
			c-2.4,11.3-14.2,16.5-34,16.5c-13.2,0-30.5-2.4-27.9-16.8H114.9z"/>
	</g>
	<g>
		<path d="M384.9,59.9c-0.5,0-1-0.1-1.5-0.3c-0.5-0.2-0.9-0.5-1.2-0.8c-0.3-0.3-0.6-0.8-0.8-1.2c-0.2-0.5-0.3-1-0.3-1.6
			c0-0.6,0.1-1.1,0.3-1.6c0.2-0.5,0.5-0.9,0.8-1.2c0.3-0.3,0.7-0.6,1.2-0.8c0.5-0.2,0.9-0.3,1.5-0.3c0.5,0,1,0.1,1.5,0.3
			c0.5,0.2,0.9,0.5,1.2,0.8c0.3,0.3,0.6,0.8,0.8,1.2c0.2,0.5,0.3,1,0.3,1.6c0,0.6-0.1,1.1-0.3,1.6c-0.2,0.5-0.5,0.9-0.8,1.2
			c-0.3,0.3-0.7,0.6-1.2,0.8C385.9,59.8,385.4,59.9,384.9,59.9z M384.9,59c0.4,0,0.8-0.1,1.1-0.2c0.4-0.1,0.7-0.4,0.9-0.6
			c0.3-0.3,0.5-0.6,0.6-1c0.1-0.4,0.2-0.8,0.2-1.2c0-0.5-0.1-0.9-0.2-1.2c-0.1-0.4-0.3-0.7-0.6-1c-0.3-0.3-0.6-0.5-0.9-0.6
			c-0.4-0.1-0.7-0.2-1.1-0.2c-0.4,0-0.8,0.1-1.1,0.2c-0.3,0.1-0.6,0.4-0.9,0.6c-0.3,0.3-0.5,0.6-0.6,1c-0.1,0.4-0.2,0.8-0.2,1.2
			c0,0.5,0.1,0.9,0.2,1.2c0.1,0.4,0.3,0.7,0.6,1c0.3,0.3,0.6,0.5,0.9,0.6C384.1,59,384.5,59,384.9,59z M383.4,54h1.6
			c0.4,0,0.8,0.1,1.1,0.3c0.3,0.2,0.5,0.5,0.5,1c0,0.2-0.1,0.4-0.2,0.6c-0.1,0.2-0.3,0.3-0.5,0.4l0.9,1.5h-1l-0.6-1.3h-0.7v1.3h-1
			V54z M384.8,55.9c0.2,0,0.4-0.1,0.5-0.2c0.1-0.1,0.2-0.2,0.2-0.4c0-0.2-0.1-0.3-0.2-0.4c-0.1-0.1-0.3-0.2-0.5-0.2h-0.5v1.2H384.8z
			"/>
	</g>
</g>
</svg>
